<?xml version="1.0" encoding="utf-8"?>
<!-- Generator: Adobe Illustrator 24.2.3, SVG Export Plug-In . SVG Version: 6.00 Build 0)  -->
<svg version="1.1" id="Calque_1" xmlns="http://www.w3.org/2000/svg" xmlns:xlink="http://www.w3.org/1999/xlink" x="0px" y="0px"
	 viewBox="0 0 800 800" style="enable-background:new 0 0 800 800;" xml:space="preserve">
<style type="text/css">
	.st0{fill:#FECE2F;}
	.st1{fill:#FFFFFF;}
	.st2{fill:#FFCE31;}
	.st3{fill:#1A1A1A;}
</style>
<g>
	<g transform="translate(271.0 128.0) scale(0.72625 0.7275132275132276) rotate(0.0 400.00000000000006 378.0)">
		<g transform="translate(-0.0 -0.0)">
			<path class="st0" d="M412.4,131.6C170.7-4.4-174.4-111.1-282.9,50c-122.5,181.9,112.1,318.6,137.6,506.5
				c28,206.3,263.6,303.8,439.3,139C514.5,488.8,653.5,267.2,412.4,131.6z"/>
		</g>
	</g>
	<g transform="translate(370.0 202.0) scale(0.8296041308089501 0.8318777292576419) rotate(0.0 290.5 229.0)">
		<g transform="translate(-0.0 -0.0)">
			<g id="ad676834-6c35-401d-b902-0e27e02ba7a8-i1">
				<g id="aef774b5-2a84-4f80-8c69-6e81a6b7bc15-i1">
					<path class="st1" d="M341.5,468.9h-600.3c-4.9,0-8.9-3.9-8.9-8.8c0,0,0,0,0,0V-9.7c0-4.9,4-8.9,8.9-8.9c0,0,0,0,0.1,0h600.3
						c4.9,0,8.9,3.9,8.9,8.8c0,0,0,0,0,0.1v469.8C350.4,465,346.4,468.9,341.5,468.9z"/>
					<path class="st2" d="M350.1,11.9V-9c0-4.9-4-8.9-8.8-8.9c0,0,0,0,0,0h-599.9c-4.9,0-8.9,4-8.9,8.8c0,0,0,0,0,0v20.9H350.1z"/>
					<path class="st3" d="M337.2-3.1l5.3-5.3c0.6-0.6,0.6-1.6,0-2.3c-0.6-0.6-1.6-0.6-2.3,0l-5.3,5.3l-5.3-5.3
						c-0.6-0.6-1.6-0.6-2.3,0c-0.6,0.6-0.6,1.6,0,2.3l5.3,5.3l-5.3,5.3c-0.6,0.6-0.6,1.6,0,2.3c0.6,0.6,1.6,0.6,2.3,0l5.3-5.3
						l5.3,5.3c0.6,0.6,1.6,0.6,2.3,0c0.6-0.6,0.6-1.6,0-2.3L337.2-3.1z"/>
					<path class="st3" d="M341.9-20.7h-601.2c-5.8,0-10.6,4.7-10.6,10.5v469.7c0,5.8,4.8,10.5,10.6,10.5h601.2
						c5.8,0.1,10.6-4.6,10.6-10.4V-10.2C352.5-16.1,347.8-20.8,341.9-20.7z M-259.3-17.5h601.2c4.1,0,7.4,3.2,7.4,7.3v21.6h-616.1
						v-21.6C-266.7-14.3-263.3-17.5-259.3-17.5z M349.4,14.6v58.9h-616.1V14.6H349.4z M341.9,466.8h-601.2c-4.1,0-7.4-3.2-7.4-7.3
						V76.8h616.1v382.8C349.3,463.6,346,466.8,341.9,466.8z"/>
					<path class="st3" d="M313.5,5H307c-2.7,0-4.8-2.2-4.8-4.8v-6.4c0-2.7,2.2-4.8,4.8-4.8h6.4c2.7,0,4.8,2.2,4.8,4.8v6.4
						C318.3,2.8,316.1,5,313.5,5z M307-7.9c-0.9,0-1.6,0.7-1.6,1.6v6.4c0,0.9,0.7,1.6,1.6,1.6h6.4c0.9,0,1.6-0.7,1.6-1.6v-6.4
						c0-0.9-0.7-1.6-1.6-1.6H307z"/>
					<path class="st3" d="M292,5h-12.9c-0.9,0-1.6-0.7-1.6-1.6s0.7-1.6,1.6-1.6H292c0.9,0,1.6,0.7,1.6,1.6S292.9,5,292,5z"/>
					<path class="st3" d="M279.2,60.7H-113c-3.3,0-5.9-2.6-5.9-5.9V33.4c0-3.3,2.6-5.9,5.9-5.9h392.1c3.3,0,5.9,2.6,5.9,5.9v21.4
						C285.1,58.1,282.4,60.7,279.2,60.7z M-113,30.7c-1.5,0-2.7,1.2-2.7,2.7v21.4c0,1.5,1.2,2.7,2.7,2.7h392.1
						c1.5,0,2.7-1.2,2.7-2.7V33.4c0-1.5-1.2-2.7-2.7-2.7H-113z"/>
					<path class="st3" d="M-208.3,58.6c-0.9,0-1.6-0.7-1.6-1.6c0-0.5,0.2-0.9,0.6-1.2l13.6-11.6l-13.6-11.6
						c-0.7-0.6-0.8-1.6-0.2-2.3c0.6-0.7,1.6-0.8,2.3-0.2l15,12.9c0.7,0.6,0.8,1.6,0.2,2.3c-0.1,0.1-0.1,0.1-0.2,0.2l-15,12.9
						C-207.6,58.4-207.9,58.6-208.3,58.6z"/>
					<path class="st3" d="M-234,58.6c-0.4,0-0.8-0.1-1-0.4l-15-12.9c-0.7-0.6-0.8-1.6-0.2-2.3c0.1-0.1,0.1-0.1,0.2-0.2l15-12.9
						c0.7-0.6,1.7-0.5,2.3,0.2c0.6,0.7,0.5,1.7-0.2,2.3l0,0l-13.6,11.6l13.6,11.6c0.7,0.6,0.8,1.6,0.2,2.3
						C-233.1,58.3-233.6,58.6-234,58.6z"/>
					<path class="st3" d="M-143.5,42.5c-0.9,0-1.6,0.7-1.6,1.6c0,6-4.8,10.8-10.7,10.9c-6,0-10.8-4.8-10.9-10.7
						c0-6,4.8-10.8,10.7-10.9c1.3,0,2.6,0.2,3.8,0.7l-3.1,1c-0.8,0.3-1.3,1.2-1,2s1.2,1.3,2,1l6.4-2.1c0.8-0.3,1.3-1.2,1-2
						c0-0.1-0.1-0.1-0.1-0.2l-3.2-6.4c-0.4-0.8-1.4-1.1-2.2-0.7c-0.8,0.4-1.1,1.4-0.7,2.2l1,2c-7.4-2.1-15.1,2.2-17.2,9.6
						s2.2,15.1,9.6,17.2c7.4,2.1,15.1-2.2,17.2-9.6c0.4-1.2,0.5-2.5,0.5-3.8C-141.9,43.2-142.6,42.5-143.5,42.5z"/>
					<path class="st3" d="M334.4,56.3l-9.1-9.1c4.2-5.4,3.1-13.2-2.3-17.3c-5.4-4.2-13.2-3.1-17.3,2.3c-4.2,5.4-3.1,13.2,2.3,17.3
						c4.4,3.4,10.6,3.4,15.1,0l9.1,9.1c0.6,0.6,1.6,0.6,2.3,0C335.1,58,335.1,57,334.4,56.3z M306.5,39.8c0-5,4.1-9.1,9.1-9.1
						c5,0,9.1,4.1,9.1,9.1s-4.1,9.1-9.1,9.1l0,0C310.6,48.9,306.5,44.8,306.5,39.8z"/>
				</g>
			</g>
		</g>
	</g>
	<g transform="translate(618.0 322.0) scale(1.0870583198426609 1.0869856049660191) rotate(0.0 149.486 149.496)">
		<g transform="translate(-0.0 -0.0)">
			<g id="Layer_2-i2">
				<g id="robot_1-i2">
					<path class="st0" d="M-95.2,4.4c-3.4-0.2-9.8,3.6-11.3,7.2c-1.4,3.6-1.6,8.8-1.1,8.8s14.4-2.1,14.4-2.1l14.5,0.3
						C-78.7,18.7-79.4,5.5-95.2,4.4z"/>
					<path class="st1" d="M-95.2,4.4c-3.4-0.2-9.8,3.6-11.3,7.2c-1.4,3.6-1.6,8.8-1.1,8.8c0.2,0,2.2-0.3,4.7-0.6
						c1.2-4,4.6-12.4,12.3-14.6C-92.1,4.8-93.6,4.5-95.2,4.4z"/>
					<path class="st0" d="M-94.9,79.8c-0.8,0.1-21.6,2.4-20.6,4.8c1,2.4,22.9,2,25.1,1.6s26.2-4.3,26.2-4.3s7.5-2.2,5.5-3.2
						C-60.5,77.7-79.5,77.6-94.9,79.8z"/>
					<ellipse class="st3" cx="45.2" cy="180.7" rx="36" ry="36"/>
					<path class="st1" d="M64.6,182.7c0.9-10.6-6.9-19.9-17.4-20.8c-1.1-0.1-21.1,4.4-49.4-2s-47-27.2-54.9-43.6
						s-11.2-38.4-11.2-38.4c-4.7-0.5-9.4-0.6-14.1-0.3c-8.6,0.4-23.1,4.7-23.1,4.7l2.4,17.5c0,0,8.8,39.1,27.3,59.7
						s39.6,33.3,66.7,39.8c24.5,5.9,48.9,1.8,53.5,1C54.9,200.7,63.7,193,64.6,182.7z"/>
					<path class="st3" d="M44.6,201.5c-0.7,0-1.3-0.5-1.4-1.2c-0.1-0.7,0.3-1.4,1.1-1.6c0,0,0.1,0,0.1,0
						c15.4-2.5,18.5-11.3,18.9-16.2c0.9-9.8-6.4-18.5-16.2-19.3c-1.4-0.1-2.8-0.2-4.2-0.1c-0.8,0.1-1.4-0.5-1.5-1.3
						c-0.1-0.8,0.5-1.4,1.3-1.5c1.5-0.1,3.1,0,4.6,0.1c11.3,1,19.7,11,18.7,22.3c-0.9,9.8-8.6,16.7-21.2,18.7H44.6z"/>
					<path class="st3" d="M46.7,199.7c-0.2-0.7-0.9-1.2-1.7-1c0,0,0,0,0,0c-6.8,1.4-13.8,2.1-20.8,2.2c-1.6-12.2-0.9-24.5,2-36.4
						c6.1,0.1,12.2-0.4,18.1-1.6c0.7-0.2,1.2-0.9,1.1-1.7c-0.2-0.7-0.9-1.2-1.7-1.1c-7.8,1.4-15.7,1.9-23.6,1.4
						C2.4,160.8-15,155.4-30.1,146c-16.7-10.6-25.8-28.5-30.5-41.7c-3.1-8.6-5.2-17.5-6.3-26.6c-0.1-0.8-0.8-1.3-1.5-1.2
						c-0.8,0.1-1.3,0.8-1.2,1.5c0.8,7.2,2.3,14.3,4.5,21.3c-3.3-1.7-9.2-3.6-17.4-2.2c-10.3,1.9-15.4,7.6-17.4,10.6
						c-2.1-8.4-3.5-16.9-4-25.5c0-0.7-0.6-1.3-1.4-1.3h0c-0.7,0-1.3,0.6-1.3,1.3c0,0,0,0.1,0,0.1c0.6,10.4,2.3,20.6,5.2,30.6
						c4.5,15.9,13.8,38.7,32.7,56.6c25.8,24.4,55.5,31.8,75.9,33.7c4.8,0.5,9.4,0.6,13.5,0.6c8.4,0.1,16.8-0.7,25-2.4
						C46.4,201.1,46.8,200.4,46.7,199.7z M-50,180.7c-1.3-10.7,1.5-19.4,8.4-25.7c3.1-2.8,6.7-5,10.6-6.4c7.2,4.5,14.9,8.1,23,10.6
						c-7.6,10.4-11.7,22.8-11.9,35.6C-30.6,191.6-40.7,186.8-50,180.7L-50,180.7z M-99.1,111.3c0.2-0.1,0.4-0.3,0.5-0.6
						c0.9-1.7,2.1-3.3,3.6-4.6c3.6-3.3,8.1-5.5,13-6.4c11.7-2.2,17.9,3.3,18.2,3.6c0.2,0.6,0.4,1.2,0.6,1.7
						c2.8,8.1,6.7,15.9,11.4,23.1c-3.8-0.8-10.2-1.1-17.9,2.9c-9.3,4.7-12.9,11.6-14.2,15.4c-6.5-10.7-11.6-22.2-14.9-34.3
						C-98.9,111.8-99,111.5-99.1,111.3z M-81.9,149.5C-81.9,149.4-81.9,149.4-81.9,149.5c0-0.2,1.7-10,13.4-16c4.2-2.3,9-3.3,13.8-3
						c1.8,0.1,3.6,0.6,5.3,1.3c0.1,0.1,0.2,0.1,0.3,0.1c4.3,5.7,9.4,10.7,15.2,14.9c-3.5,1.5-6.7,3.6-9.5,6.1
						c-5,4.6-10.4,12.7-9.5,25.8c-4.9-3.4-9.6-7.2-13.9-11.4C-72.5,162-77.6,156-81.9,149.5L-81.9,149.5z M7.4,200.4
						c-8.3-0.8-16.5-2.3-24.6-4.6c0-12.8,4.2-25.3,12-35.6c8.3,2.4,16.8,3.8,25.4,4.2c1.1,0,2.2,0.1,3.2,0.1
						c-2.8,11.9-3.5,24.3-1.9,36.4C16.8,201,12.1,200.8,7.4,200.4L7.4,200.4z"/>
					<path class="st0" d="M-82,99.8c-0.2,0-0.5,0.1-0.6,0.1l0.3,1c3.2,10.5,7.8,20.4,13.8,29.6c5.2-2.6,11.1-3.4,16.8-2.3
						c-4.7-7.2-8.6-14.9-11.4-23.1c-0.2-0.6-0.4-1.2-0.6-1.7C-64.1,103.1-70.3,97.6-82,99.8z"/>
					<path class="st0" d="M-31,148.6c-3.9,1.4-7.5,3.6-10.6,6.4c-1.2,1.1-2.2,2.3-3.2,3.5c4,3.7,8.5,6.9,13.3,9.6
						c4.9,2.5,10.2,4.5,15.6,5.8c1.9-5.2,4.6-10.2,8-14.7C-16.2,156.7-23.9,153.1-31,148.6z"/>
					<path class="st0" d="M-43.4,152.9c2.8-2.6,6-4.6,9.5-6.1c-5.8-4.1-11-9.2-15.2-14.9c-0.1,0-0.2,0-0.3-0.1
						c-1.7-0.7-3.5-1.2-5.3-1.3c-4.3-0.3-8.5,0.5-12.4,2.3c0.9,1.4,1.8,2.7,2.8,4c4.6,6.3,9.7,12.2,15.2,17.7
						c0.7,0.7,1.4,1.4,2.2,2.1C-45.8,155.3-44.7,154.1-43.4,152.9z"/>
					<path class="st0" d="M47.2,161.8c-0.2,0-0.8,0.1-1.8,0.2c-0.2,0.4-0.5,0.7-1,0.8c-6,1.2-12,1.7-18.1,1.6
						c-1,4.1-1.8,8.2-2.2,12.4c5.7-0.9,11.3-2.6,16.5-5.1c4.3-2.1,8.5-5,10.3-9.3C49.7,162.2,48.4,162,47.2,161.8z"/>
					<path class="st0" d="M-5.2,160.1c-3.4,4.4-6.1,9.3-8.1,14.5c11.2,2.7,23.1,4,34.5,2.7c0.4-4.3,1.2-8.6,2.2-12.8
						c-1.1,0-2.1,0-3.2-0.1C11.6,163.9,3.1,162.5-5.2,160.1z"/>
					<path class="st0" d="M-83.4,97.2c0.3,0,0.6-0.1,0.9-0.2c8.2-1.5,14.1,0.4,17.4,2.2c-2.1-6.9-3.6-14.1-4.5-21.3v-0.3
						c-4.2-0.3-8.5-0.4-12.7-0.2c-1.5,0.1-3,0.2-4.4,0.5c0.1,1,0.3,1.9,0.4,2.9C-85.7,86.4-84.8,91.9-83.4,97.2z"/>
					<path class="st3" d="M-57.1,78.9L-57.1,78.9L-57.1,78.9c0-0.3-0.1-0.5-0.2-0.6l-20.2-59.7c-0.1-0.3-0.2-0.5-0.3-0.7v-0.2
						c-0.3-3.5-1.9-6.7-4.3-9.2C-81,7.8-80,7-79.2,6.1c1.3-1.4,2.1-3.1,2.3-4.9c0.1-0.9,0.1-1.9,0-2.9c-0.2-0.9-0.5-1.8-0.9-2.6
						c-0.4-0.8-0.9-1.5-1.6-2.1c-0.6-0.6-1.3-1.1-2.1-1.5c-0.2-0.1-0.4-0.1-0.6,0c-0.5,0.1-0.8,0.7-0.7,1.2l0,0.2
						c0.2,0.7,0.4,1.4,0.6,2c0.2,0.6,0.3,1.2,0.5,1.8c0.1,0.6,0.2,1.1,0.3,1.7c0.1,0.5,0.1,1.1,0,1.6c0,0.5-0.1,1.1-0.3,1.6
						c-0.2,0.6-0.4,1.1-0.6,1.7c-0.5,1-1.1,1.9-1.7,2.9c-3.2-2.5-7.2-3.6-11.3-3.2c-4.1,0.4-7.9,2.5-10.6,5.7
						c-0.6-0.8-1.2-1.7-1.7-2.6c-0.5-1-0.9-2.1-1.1-3.2c-0.1-0.6-0.1-1.1-0.2-1.7c0-0.6,0-1.2,0-1.7c0-0.6,0-1.2,0.1-1.9
						c0-0.6,0.1-1.4,0.1-2V-4c0-0.2-0.1-0.4-0.2-0.6c-0.3-0.4-0.9-0.5-1.4-0.2c-0.7,0.5-1.3,1.2-1.7,1.9c-0.4,0.7-0.8,1.5-1.1,2.2
						c-0.3,0.8-0.4,1.7-0.4,2.5c0,0.9,0.1,1.8,0.3,2.6c0.7,3.1,2.9,5.6,5.8,6.7c-1.7,2.9-2.5,6.3-2.1,9.7c0,0.2,0.1,0.3,0.1,0.5
						c0,0.2-0.1,0.3,0,0.5l-7.5,62.5c0,0.2-0.1,0.4,0,0.6v0.1l0,0c0.1,1.4,1.1,2.8,11,2.9l0,0c0.7,0,1.4-0.6,1.4-1.3
						c0-0.7-0.6-1.4-1.3-1.4c0,0-0.1,0-0.1,0c-2.5,0.1-5.1-0.1-7.6-0.6c1.4-0.6,2.9-1.1,4.4-1.5c7.1-1.7,14.4-2.9,21.7-3.6
						c7.4-0.8,14.8-1.2,22.2-0.9c1.5,0,2.9,0.2,4.4,0.6c-2,0.9-4.1,1.5-6.3,1.9c-0.7,0.2-1.2,0.9-1,1.6c0.2,0.7,0.9,1.2,1.6,1
						C-58.5,81.9-57,80.5-57.1,78.9z M-95,6.2c6.8-0.7,13,4,14.3,10.7c-0.8-0.1-1.7-0.1-2.5-0.1c-3.5,0-7,0.1-10.5,0.5
						c-3.5,0.3-7,0.9-10.4,1.7c-0.9,0.2-1.8,0.4-2.7,0.7C-106.9,12.8-101.8,6.9-95,6.2z"/>
					<path class="st1" d="M-109.6,80.7c2.9-0.7,6.4-1.5,10.4-2.1l1.3-58.1c-4.9,0.7-7.9,1.6-8.8,2l-7.1,59.5
						C-112.4,81.5-111,81-109.6,80.7z"/>
					<path class="st0" d="M96.6,66.3c-6-4.5-27.7-14.4-43.3-12s-29.1,9.2-29.9,9.2S5.3,74,7.4,77.7c2.1,3.7,29.5,19.5,29.5,19.5
						l47.5,29.3c0,0,26.7,18.5,29.6,18.7c2.9,0.1,4.3-1.2,5.4-4.5c1.1-3.2,6.2-25,0.6-45.9C115.8,78.7,96.6,66.3,96.6,66.3z"/>
					<path class="st1" d="M38.4,73.4c0.8,0,15.6-7.3,32.4-10c8.2-1.3,18.1,0.6,26.8,3.5c-0.6-0.4-1-0.6-1-0.6
						c-6-4.5-27.7-14.4-43.3-12c-15.5,2.4-29.1,9.2-29.9,9.2S5.3,74,7.4,77.7c1,1.7,7.1,5.8,13.5,9.8C21.9,82.8,37.6,73.4,38.4,73.4
						z"/>
					<path class="st0" d="M55.5,117.1c-9.2-3-35.6-9.2-52.1-3.1c-16.6,6.1-34.1,16.6-41.1,45.7s-5.5,49.1,0.6,74.6
						c6.1,25.4,22.7,57.4,42,69.9c19.3,12.6,38.7,3.1,46.9-2.2c8.3-5.2,35.9-28.9,48.2-56.5s18.1-56.1,13.2-78.2
						C108.2,145.3,88.3,127.8,55.5,117.1z"/>
					<path class="st1" d="M-13.3,234.3c-6.1-25.4-7.7-45.4-0.6-74.6c7-29.1,24.5-39.6,41.1-45.7c2.1-0.7,4.2-1.3,6.4-1.7
						C23.4,111,12,110.8,3.3,114c-16.6,6.1-34.1,16.6-41.1,45.7s-5.5,49.1,0.6,74.6s22.7,57.4,42,69.9c11.8,7.7,23.6,7.1,32.9,4.4
						c-3.2-1.1-6.2-2.5-8.9-4.4C9.5,291.7-7.1,259.7-13.3,234.3z"/>
					<path class="st3" d="M26.3,312.4c-0.5,0-1,0-1.4,0c-13.8-0.7-27.2-9.2-38.9-24.6c-10.7-14.2-19.4-33.2-25.2-55.1
						c-5.6-21.4-6.4-44.3-2.3-64.5c4.4-21.8,14-38.4,27.7-48.1c12.7-8.9,29-12.1,48.8-9.2c18.4,2.6,34.3,9.7,40.3,12.6
						c17.1,8.3,28,18.1,34.4,30.6c8,15.8,8.7,36.1,2.3,62c-6.5,26-19.5,49.8-37.7,69.4C58.2,302.4,40.5,312.4,26.3,312.4z
						 M21.6,112.5c-13.3,0-24.6,3.3-33.8,9.8c-13.2,9.3-22.4,25.4-26.6,46.4c-4,19.8-3.2,42.2,2.3,63.2
						c5.6,21.2,14.4,40.5,24.7,54.1c11.2,14.8,23.9,22.9,36.9,23.5c13.5,0.6,31.2-9.1,47.2-26c17.9-19.3,30.6-42.7,37-68.2
						c14.2-56.8-9.8-77.2-35.2-89.6c-5.9-2.9-21.5-9.8-39.5-12.4C30.3,112.8,26,112.5,21.6,112.5L21.6,112.5z"/>
					<circle class="st3" cx="108.9" cy="109.6" r="2.7"/>
					<path class="st3" d="M105.2,227.1C105.2,227.1,105.2,227.1,105.2,227.1c0,0-4.1,7.5-40.4,1.7c-0.4,0-0.7,0-1,0.2
						c-0.3,0.2-0.5,0.6-0.6,0.9c0,0.2-3.4,22-5.9,40.9c-2.1,0.6-8.5,1.8-17.8-0.2c0.6-8.5,1.3-14.7,1.3-14.9
						c0.1-0.4-0.1-0.9-0.4-1.2c-0.3-0.3-0.7-0.5-1.2-0.4c-8.7,1-17.5,1.3-26.2,1c-13.4-0.6-32.4-3.1-46.2-12.1
						c-0.6-0.4-1.5-0.2-1.9,0.4c-0.4,0.6-0.2,1.5,0.4,1.9c14.4,9.3,33.9,12,47.7,12.5c8.3,0.3,16.6,0.1,24.9-0.8
						c-0.3,3.1-1.1,10-1.4,17.9c-0.7,14.6-0.2,25.7,1.7,33c0.1,0.6,0.7,1.1,1.3,1.1c0.1,0,0.2,0,0.3,0c0.7-0.2,1.2-0.9,1-1.7
						c0,0,0,0,0,0c-2.2-8.9-2.1-22.9-1.5-34c3.3,0.7,6.6,1,10,1.1c3.3,0.1,6.5-0.3,9.7-1.3c0.5-0.2,0.8-0.6,0.9-1.1
						c2.2-16.4,5-35.2,5.8-40.3c37.6,5.8,41.7-2.8,42.1-3.8L105.2,227.1z"/>
					<circle class="st3" cx="28.2" cy="266.5" r="2.8"/>
					<circle class="st3" cx="70.5" cy="239.2" r="2.9"/>
					<circle class="st3" cx="52.8" cy="266.3" r="2.6"/>
					<path class="st3" d="M125.2,60.9c-2.3,0-4.3,1.5-5.1,3.6c-4.7,0-11.7,0.8-17.5,4.8c-2.5-2-5.1-3.9-7.8-5.7
						c-17.2-11-35.4-13.8-54.3-8.5C25.3,59.6,13.5,68.3,7.8,73.1c-1.3,1.1-1.9,2.7-1.8,4.3c0.1,1.6,1,3.1,2.4,4l103.8,64.8
						c0.8,0.5,1.8,0.8,2.7,0.8c0.6,0,1.2-0.1,1.7-0.3c1.5-0.5,2.6-1.6,3.1-3.1c2.4-6.7,6.2-20.2,4.4-35.2
						c-1.6-14.4-8.5-27.6-19.4-37.1c5-3.2,11-3.9,15.2-4c0.5,2.5,2.7,4.3,5.2,4.3c3,0,5.4-2.4,5.4-5.4
						C130.6,63.3,128.3,60.9,125.2,60.9C125.3,60.9,125.3,60.9,125.2,60.9z M121.5,108.7c0.7,6.3,0.6,12.8-0.5,19.1
						c-7.4-8.1-18-14.1-21.9-16.2c6.3-8.6,10.5-18.5,12.2-29C117,90.3,120.5,99.3,121.5,108.7L121.5,108.7z M109,79.5
						c-1.4,11.6-5.9,22.5-13,31.8c-0.2,0.3-0.3,0.8-0.2,1.2c0.1,0.4,0.4,0.7,0.7,0.9c0.1,0.1,15.2,7.4,23.7,17.6l0.3,0.3
						c-0.8,3.9-1.9,7.7-3.2,11.5c-0.2,0.7-0.8,1.2-1.5,1.4c-0.7,0.2-1.4,0.1-2-0.2L9.9,79.1c-0.6-0.4-1.1-1.1-1.1-1.8
						c-0.1-0.8,0.2-1.5,0.8-2c4-3.4,8.2-6.4,12.7-9l31.2,20.4c1.9,1.2,4.1,1.9,6.4,1.9c3.9,0,7.5-1.9,9.7-5.1
						c1.7-2.6,2.4-5.7,1.8-8.8c-0.6-3.1-2.4-5.7-5-7.5l-16.5-11c15.1-2.2,29.7,1.1,43.6,10C99.3,69.8,104.5,74.3,109,79.5z"/>
					<path class="st0" d="M-174.9,233.6c-1.6,2.9-0.9,10.4,1.7,13.2c2.7,2.8,7.3,5.1,7.5,4.7s4.1-13.9,4.1-13.9l6.4-13
						C-155.1,224.7-167.3,219.8-174.9,233.6z"/>
					<path class="st1" d="M-174.9,233.6c-1.6,2.9-0.9,10.4,1.7,13.2c2.7,2.8,7.3,5.1,7.5,4.7c0.1-0.1,0.7-2.1,1.4-4.6
						c-3.1-2.8-9.3-9.3-8.1-17.3C-173.3,230.9-174.1,232.2-174.9,233.6z"/>
					<path class="st0" d="M-106.5,265.1c-0.2,0.7-6.9,20.6-4.3,20.7c2.6,0.1,11.5-19.9,12-22.1c0.6-2.2,7.1-25.6,7.1-25.6
						s1.1-7.7-0.6-6.4C-93.9,233-102,250.1-106.5,265.1z"/>
					<ellipse class="st3" cx="44.1" cy="180.6" rx="36" ry="36"/>
					<path class="st3" d="M54.7,162.5c-9.9-5.7-22.4-2.3-28.1,7.6c0,0,0,0,0,0c-0.3,0.6-0.8,1.4-1.2,2.3c-0.2,0.2-0.4,0.5-0.5,0.8
						c0,0,0,0.2-0.1,0.6c-0.1,0.2-0.1,0.3-0.2,0.5c-0.1,0.2-0.1,0.4-0.1,0.6c-7.1,24.3-22.5,45.3-43.6,59.4
						c-16.6,10.7-36.7,11.4-50.7,10c-9.1-0.8-18.1-2.7-26.7-5.5c-0.7-0.3-1.5,0.1-1.7,0.8c0,0,0,0,0,0c-0.3,0.7,0.1,1.4,0.7,1.7
						c0,0,0.1,0,0.1,0c6.9,2.3,14,3.9,21.2,4.9c-3,2.3-7.2,6.8-9.3,14.9c-2.6,10.1,0.4,17.2,2.3,20.3c-8.5-1.6-16.8-4-24.9-7.2
						c-0.7-0.3-1.5,0-1.8,0.7c-0.3,0.7,0,1.5,0.7,1.8l0,0c9.6,3.9,19.7,6.6,29.9,8.1c7.5,1.2,15.1,1.9,22.8,1.9
						c14.5,0.1,28.9-2.5,42.4-7.7c33-13.1,52.2-37,62.6-54.7c6.6-11,11.5-22.9,14.6-35.4C66.2,177.1,63.2,167.4,54.7,162.5z
						 M39.8,163.2c4.6-1.2,9.4-0.6,13.5,1.7c4.3,2.4,10.7,8.7,7,23.1c0,0,0,0.1,0,0.2c0,0.1,0,0.2,0,0.2c-0.1,0.1-0.1,0.3-0.1,0.4
						c0,0.1,0,0.1,0,0.2c-1.6,6.5-3.8,12.8-6.5,18.9c-11.7-3.7-22.6-9.5-32.2-17.1c2.5-5.2,4.5-10.7,6-16.2c0.5-1,1.2-2.5,1.6-3.2
						C31.4,167.4,35.3,164.4,39.8,163.2L39.8,163.2z M-78.8,282.3l-0.8-0.1c0-0.2-0.2-0.5-0.3-0.6c0-0.1-6.1-7.4-2.9-19.7
						c3-11.5,10.6-14.9,10.9-15c0.6,0,1.2,0.1,1.8,0.2c3.3,0.3,6.9,0.5,10.6,0.5c5.1,0,10.1-0.4,15.1-1.1c-2.3,3.1-5.2,8.7-5,17.5
						c0.4,10.4,5.1,16.6,8,19.3C-53.9,284.6-66.5,284.3-78.8,282.3z M-15.2,276.6c-7.3,2.8-14.8,4.9-22.6,6.1c0,0,0,0-0.1,0
						c-0.1,0-8.3-5.7-8.8-18.8c-0.4-12.4,6.3-17.8,6.5-18c0.1,0,0.1-0.1,0.2-0.2c7-1.5,13.7-4,19.9-7.5c-0.1,3.8,0.4,7.6,1.6,11.2
						c2.1,6.4,7.1,14.8,19.4,19.5C-4.3,271.8-9.7,274.4-15.2,276.6L-15.2,276.6z M4,266.9c-10.3-3.3-16.9-9.5-19.8-18.4
						c-1.3-4-1.7-8.1-1.3-12.3c7.1-4.6,13.6-10.1,19.3-16.4C8.4,231,18,240,29.5,245.6C22,253.8,13.5,261,4,266.9L4,266.9z
						 M46,223.1c-4.2,7.2-9.1,14-14.6,20.3C19.8,238,10.2,229,4.2,217.7c5.6-6.5,10.5-13.6,14.5-21.2c0.5-1,1-1.9,1.5-2.9
						c9.6,7.6,20.6,13.4,32.3,17.1C50.7,214.5,48.5,218.7,46,223.1L46,223.1z"/>
					<path class="st1" d="M52.5,210.6c-11.7-3.7-22.6-9.5-32.3-17.1c-0.5,0.9-1,1.9-1.5,2.9c-4,7.6-8.9,14.7-14.5,21.2
						c6.1,11.3,15.6,20.4,27.2,25.8c5.5-6.3,10.4-13.1,14.6-20.3C48.5,218.7,50.7,214.5,52.5,210.6z"/>
					<path class="st1" d="M29.5,245.6C17.9,240,8.4,231,2.2,219.8c-5.7,6.2-12.2,11.8-19.3,16.4c-0.4,4.1,0.1,8.3,1.3,12.3
						c2.9,8.9,9.6,15.1,19.8,18.4C13.4,261,22,253.8,29.5,245.6z"/>
					<path class="st1" d="M0.9,268.7c-12.3-4.7-17.3-13.1-19.4-19.5c-1.1-3.6-1.7-7.4-1.6-11.2c-6.2,3.5-12.9,6.1-19.9,7.5
						c0,0.1-0.1,0.1-0.2,0.2c-0.3,0.2-6.9,5.6-6.5,18c0.5,13.2,8.7,18.8,8.8,18.8c0,0,0,0,0.1,0c7.7-1.2,15.3-3.2,22.6-6.1
						C-9.6,274.4-4.2,271.7,0.9,268.7z"/>
					<path class="st1" d="M-108.1,274.3c8,3.2,16.4,5.6,24.9,7.2c-1.9-3.1-4.9-10.2-2.3-20.3c2.1-8.1,6.3-12.6,9.3-14.9
						c-7.2-1-14.3-2.6-21.2-4.9c-0.1,0-0.1-0.1-0.2-0.1c-2.1,3.7-3.9,7.5-5.5,11.5c-2.7,6.5-4.6,17.7-5.2,21.5
						C-108.3,274.2-108.2,274.3-108.1,274.3z"/>
					<path class="st1" d="M-82.9,261.8c-3.2,12.3,2.9,19.6,2.9,19.7c0.2,0.2,0.3,0.4,0.3,0.6l0.8,0.1c12.4,2,24.9,2.4,37.4,0.9
						c-2.9-2.8-7.6-8.9-8-19.3c-0.3-8.7,2.7-14.4,5-17.5c-5,0.8-10,1.2-15.1,1.1c-3.8,0-7.4-0.2-10.6-0.5c-0.6,0-1.2-0.1-1.8-0.2
						C-72.4,247-79.9,250.3-82.9,261.8z"/>
					<path class="st1" d="M60.1,189.1c0-0.1,0-0.2,0-0.2c0.1-0.1,0.1-0.3,0.1-0.4c0-0.1,0-0.2,0-0.2c0,0,0-0.1,0-0.2
						c3.7-14.5-2.8-20.7-7-23.1c-8.5-4.9-19.4-2-24.3,6.6c-0.4,0.7-1.1,2.2-1.6,3.2c-1.5,5.6-3.5,11-6,16.2
						c9.6,7.6,20.5,13.4,32.2,17.1C56.3,201.9,58.5,195.6,60.1,189.1z"/>
					<path class="st0" d="M18.7,196.3c-4,7.6-8.9,14.7-14.5,21.2c2.6,4.9,5.9,9.4,9.8,13.4c7.2-9,13.4-19.2,16.9-30.1
						c-3.7-2.2-7.3-4.7-10.7-7.4C19.7,194.4,19.3,195.4,18.7,196.3z"/>
					<path class="st0" d="M-18.4,249.2c-1.1-3.6-1.7-7.4-1.6-11.2c-6.2,3.5-12.9,6.1-19.9,7.5c0,0.1-0.1,0.1-0.2,0.2
						c-0.3,0.2-6.4,5.2-6.5,16.5c1.6-0.3,3.3-0.6,4.9-0.9c7.7-1.5,15.2-3.6,22.5-6.4c1-0.4,1.9-0.7,2.9-1.1
						C-17.3,252.4-17.9,250.8-18.4,249.2z"/>
					<path class="st0" d="M-15.8,248.4c0.5,1.5,1.1,3,1.8,4.4c5.1-2.1,9.8-4.8,14.3-8c4.4-3.4,8.3-7.3,11.8-11.6
						c-3.9-4-7.3-8.5-10-13.4c-5.7,6.2-12.2,11.8-19.3,16.4C-17.5,240.3-17,244.5-15.8,248.4z"/>
					<path class="st0" d="M-85.8,262c0.1-0.3,0.1-0.6,0.2-0.9c2.1-8.1,6.3-12.6,9.3-14.9c-7.2-1-14.3-2.6-21.2-4.9
						c-0.1,0-0.1-0.1-0.2-0.1c-2.1,3.7-3.9,7.5-5.5,11.5c-0.5,1.2-1,2.7-1.5,4.2c0.9,0.3,1.9,0.6,2.9,0.9
						C-96.6,259.6-91.2,261-85.8,262z"/>
					<path class="st0" d="M30.9,168.8c-0.7,0.8-1.3,1.7-1.8,2.6c-0.4,0.7-1.1,2.2-1.6,3.2c-1.5,5.6-3.5,11-6,16.2
						c3.3,2.6,6.7,5.1,10.4,7.2c1.6-5.6,2.4-11.3,2.3-17.1C34,176.7,33.3,172.2,30.9,168.8z"/>
					<path class="st0" d="M-82.9,261.8c0,0.2-0.1,0.4-0.1,0.6c0.3,0,0.7,0.1,1,0.1c10.8,1.5,21.8,1.5,32.6,0c0-8.1,2.8-13.3,5-16.2
						c-5,0.8-10,1.2-15.1,1.1c-3.8,0-7.4-0.2-10.6-0.5c-0.6,0-1.2-0.1-1.8-0.2C-72.4,247-79.9,250.3-82.9,261.8z"/>
					<path class="st3" d="M-91.4,230.5L-91.4,230.5c-0.3-0.1-0.5-0.1-0.7-0.1l-62.6-6.8c-0.3,0-0.5,0-0.8,0c-0.1,0-0.1-0.1-0.2-0.1
						c-3.3-1.2-6.9-1.2-10.2,0c-0.1-1.3-0.3-2.5-0.8-3.6c-0.7-1.7-1.9-3.2-3.5-4.2c-1.6-1-3.4-1.5-5.3-1.4c-0.9,0.1-1.7,0.2-2.6,0.5
						c-0.8,0.3-1.6,0.7-2.3,1.3c-0.2,0.1-0.3,0.3-0.3,0.6c-0.1,0.5,0.2,1,0.8,1.2l0.2,0c0.7,0.1,1.4,0.2,2.1,0.3
						c0.6,0.1,1.3,0.2,1.9,0.4c0.6,0.1,1.1,0.3,1.7,0.5c0.5,0.2,1,0.4,1.5,0.6c0.5,0.3,0.9,0.6,1.3,1c0.4,0.4,0.9,0.8,1.2,1.3
						c0.7,0.9,1.3,1.8,1.9,2.7c-7.6,3.9-10.6,13.2-6.9,20.9c-1,0.2-2,0.3-3,0.4c-1.1,0.1-2.3,0-3.4-0.3c-0.5-0.1-1.1-0.3-1.6-0.6
						c-0.5-0.2-1.1-0.5-1.6-0.7c-0.6-0.3-1.1-0.6-1.7-0.9c-0.6-0.3-1.2-0.6-1.8-1l-0.2-0.1c-0.2-0.1-0.4-0.1-0.6,0
						c-0.5,0.1-0.8,0.6-0.7,1.2c0.2,0.8,0.5,1.6,1,2.3c0.4,0.7,1,1.3,1.6,1.9c0.6,0.6,1.3,1,2.1,1.4c0.8,0.4,1.6,0.7,2.5,0.9
						c1.7,0.3,3.5,0.2,5.2-0.4c1.3-0.4,2.4-1.2,3.4-2.1c1.9,2.8,4.7,4.9,7.9,6c0.1,0.1,0.3,0.1,0.4,0.1h0.1c0.1,0.1,0.2,0.2,0.4,0.2
						l53.6,33.1l0.4,0.3c0,0,0.1,0,0.1,0h0.2c0.2,0.1,0.4,0.1,0.6,0.1c1.2,0,3-1.4,6.6-8.9c0.3-0.7,0-1.5-0.6-1.8
						c-0.7-0.3-1.5,0-1.8,0.6l0,0c-1,2.3-2.3,4.6-3.8,6.6c0-1.5,0.2-3.1,0.5-4.6c1.5-7.2,3.4-14.3,5.9-21.2c2.3-7,5.2-13.9,8.5-20.5
						c0.7-1.3,1.4-2.6,2.3-3.8c-0.1,2.2-0.4,4.4-0.9,6.5c-0.1,0.7,0.4,1.4,1.1,1.5c0.7,0.1,1.4-0.3,1.5-1
						C-89.1,233-89.8,231-91.4,230.5z M-158.7,227.9c-1.5,3.2-2.8,6.4-4,9.8c-1.2,3.3-2.1,6.7-2.9,10.1c-0.2,0.9-0.4,1.8-0.5,2.7
						c-6.7-2.9-9.7-10.6-6.9-17.3c2.6-5.9,9.1-9.1,15.3-7.5C-157.9,226.3-158.3,227-158.7,227.9z"/>
					<path class="st1" d="M-163.4,251.6l51,31.6c0.1-1.5,0.3-2.9,0.6-4.3c0.5-2.9,1.4-6.4,2.4-10.4l-52.1-25.7
						C-162.9,247.5-163.4,250.6-163.4,251.6z"/>
				</g>
			</g>
		</g>
	</g>
	<g transform="translate(430.0 339.0) scale(0.6495924889785808 0.6491901875950227) rotate(0.0 115.457 119.3795)">
		<g transform="translate(-0.0 -0.0)">
			<g id="fff01589-0a1a-4a5c-8dba-d46e4dccbba0-i3">
				<g id="a26ff9a6-042e-4eb1-a3a7-ae9931da553d-i3">
					<path class="st2" d="M-97.9,137.6c-5.2-2.7-10.1-5.4-14.3-8c1.1-8.8,1.1-17.8,0-26.6c4.2-2.6,9.1-5.2,14.3-8
						c4.3-2.3,6.5-7.2,5.2-11.9c-1.1-4-2.4-8-3.9-11.9c-1.7-4.5-6.4-7.3-11.2-6.5c-5.8,0.9-11.3,1.6-16.2,2.1
						c-4.2-7.7-9.4-14.8-15.4-21.2c1.9-4.5,4.3-9.6,6.9-14.8c2.2-4.3,1-9.6-2.7-12.7c-3.3-2.6-6.7-5.1-10.2-7.4
						c-4.1-2.7-9.4-2.1-12.9,1.3c-4.2,4.1-8.2,7.9-12,11.2c-7.9-3.8-16.2-6.5-24.8-8.1c-1.1-4.8-2.1-10.4-3.1-16.2
						c-0.8-4.8-4.7-8.3-9.5-8.6c-4.5-0.2-8.9-0.2-13.4,0.1c-4.8,0.3-8.8,3.9-9.6,8.7c-0.9,5.8-1.9,11.3-3,16.1
						c-8.6,1.6-16.9,4.3-24.8,8.1c-3.7-3.2-7.8-7.1-12-11.2c-3.5-3.4-8.9-3.9-12.9-1.3c-3.5,2.3-6.9,4.8-10.2,7.4
						c-3.8,3.1-4.9,8.3-2.7,12.7c2.6,5.2,5,10.3,6.9,14.8c-6,6.4-11.2,13.5-15.4,21.2c-4.9-0.4-10.5-1.2-16.2-2.1
						c-4.8-0.7-9.5,2-11.2,6.5c-1.5,3.9-2.8,7.8-3.9,11.9c-1.3,4.7,0.9,9.6,5.2,11.9c5.2,2.7,10.1,5.4,14.3,8
						c-1.1,8.8-1.1,17.8,0,26.6c-4.2,2.6-9.1,5.2-14.3,8c-4.3,2.3-6.5,7.2-5.2,11.9c1.1,4,2.4,8,3.9,11.9c1.7,4.5,6.4,7.3,11.2,6.5
						c5.8-0.9,11.3-1.6,16.2-2.1c4.2,7.7,9.4,14.8,15.4,21.1c-1.9,4.6-4.3,9.6-6.9,14.8c-2.2,4.3-1,9.6,2.7,12.7
						c3.3,2.6,6.7,5.1,10.2,7.4c4.1,2.7,9.4,2.1,12.9-1.3c4.2-4.1,8.2-7.9,12-11.2c7.9,3.8,16.2,6.5,24.8,8.1
						c1.1,4.8,2.1,10.4,3.1,16.2c0.8,4.8,4.8,8.3,9.6,8.7c4.4,0.3,8.9,0.4,13.3,0.1c4.8-0.3,8.8-3.9,9.6-8.7c1-5.8,2-11.4,3.1-16.3
						c8.6-1.6,16.9-4.3,24.8-8.1c3.7,3.2,7.8,7.1,12,11.2c3.5,3.4,8.9,3.9,12.9,1.3c3.5-2.3,6.9-4.8,10.2-7.4
						c3.8-3.1,4.9-8.3,2.7-12.7c-2.6-5.2-5-10.3-6.9-14.8c6-6.4,11.2-13.5,15.4-21.1c4.9,0.4,10.5,1.2,16.2,2.1
						c4.8,0.7,9.5-2,11.2-6.5c1.5-3.9,2.8-7.8,3.9-11.9C-91.4,144.8-93.6,139.9-97.9,137.6z M-214.4,178.8
						c-34.4,0-62.3-27.9-62.3-62.3c0-34.4,27.9-62.3,62.3-62.3c34.4,0,62.3,27.9,62.3,62.3c0,0,0,0,0,0
						C-152.1,150.8-180,178.8-214.4,178.8z"/>
					<path class="st1" d="M-233.5,175.8l-20.1,35.9c-1.7-0.7-3.3-1.4-5-2.2c-3.7,3.2-7.8,7.1-12,11.2c-3.5,3.4-8.8,3.9-12.9,1.3
						c-3.5-2.3-6.9-4.8-10.2-7.4c-3.8-3.1-4.9-8.3-2.8-12.7c2.6-5.2,5-10.3,6.9-14.8c-6-6.4-11.2-13.5-15.4-21.1
						c-1.7,0.2-3.5,0.4-5.4,0.6l34.5-61.6C-281.5,135.8-263.4,166.2-233.5,175.8z"/>
					<path class="st1" d="M-142.2,13l-31.5,56.2c-23.8-20.5-59.2-20.1-82.5,1l44.9-80c1.2,0,2.5,0.1,3.7,0.1
						c4.8,0.3,8.8,3.9,9.5,8.6c1,5.8,1.9,11.3,3.1,16.2c8.6,1.6,16.9,4.3,24.8,8.1c3.7-3.2,7.8-7.1,12-11.2
						c3.5-3.4,8.8-3.9,12.9-1.3C-144.3,11.5-143.2,12.2-142.2,13z"/>
					<path class="st1" d="M-100.8,66.2l-83.3,148.7c-3.6,1.1-7.3,2-11,2.7c-1.1,4.9-2.1,10.4-3.1,16.3c-0.8,4.8-4.8,8.4-9.6,8.7
						c-4.4,0.3-8.9,0.2-13.3-0.1c-4.8-0.3-8.8-3.9-9.6-8.7c-0.8-5.1-1.7-10-2.7-14.4l22.8-40.7c34.4-2.2,60.5-31.8,58.3-66.2
						c-0.6-8.8-3-17.4-7.1-25.2l22-39.3c5.1,5.8,9.6,12.1,13.3,18.8c4.9-0.4,10.5-1.2,16.2-2C-105.4,64.4-102.9,64.9-100.8,66.2z"/>
					<path class="st3" d="M-213.4,244.3c-2.5,0-5.1-0.1-7.8-0.3c-5.6-0.4-10.2-4.5-11.1-10c-0.7-4.4-1.7-10.1-2.8-15.1
						c-8-1.6-15.8-4.1-23.2-7.6c-3.2,2.8-6.8,6.2-11.1,10.4c-4,3.9-10.2,4.5-14.9,1.5c-3.6-2.3-7-4.8-10.3-7.5
						c-4.3-3.5-5.7-9.6-3.2-14.6c2.8-5.6,4.9-10.1,6.5-13.8c-5.6-6-10.4-12.6-14.4-19.8c-4.1,0.4-8.9,1-15.1,1.9
						c-5.6,0.8-10.9-2.3-13-7.5c-1.5-3.9-2.8-8-3.9-12c-1.4-5.4,1.1-11.1,6-13.7c5.7-3,9.8-5.3,13.3-7.4c-1-8.3-1-16.7,0-25
						c-3.5-2.1-7.8-4.4-13.3-7.4c-5-2.6-7.4-8.3-6-13.8c1.1-4.1,2.4-8.1,3.9-12c2-5.2,7.4-8.4,13-7.5c6.2,0.9,11,1.6,15.1,1.9
						c4-7.1,8.8-13.8,14.4-19.8c-1.6-3.7-3.7-8.1-6.5-13.8c-2.5-5-1.2-11.1,3.2-14.6c3.3-2.7,6.7-5.2,10.3-7.5
						c4.7-3.1,10.9-2.5,14.9,1.5c4.3,4.2,8,7.6,11.1,10.4c7.4-3.4,15.2-6,23.2-7.6c0.9-4,1.8-8.7,2.8-15c0.9-5.5,5.5-9.6,11.1-10
						c4.5-0.3,9.1-0.3,13.6-0.1c5.6,0.4,10.1,4.5,11,10c0.7,4.4,1.7,10.1,2.8,15.1c8,1.6,15.8,4.1,23.2,7.6
						c3.2-2.8,6.8-6.2,11.1-10.4c4-3.9,10.2-4.5,14.9-1.5c3.6,2.3,7,4.9,10.3,7.5c4.3,3.5,5.7,9.6,3.2,14.6
						c-2.8,5.6-4.9,10-6.5,13.8c5.6,6,10.4,12.7,14.4,19.8c4.1-0.4,8.9-1,15.1-1.9c5.5-0.8,10.9,2.3,13,7.5c1.5,3.9,2.8,8,3.9,12
						c1.4,5.4-1.1,11.1-6,13.8c-5.6,2.9-9.9,5.3-13.3,7.4c1,8.3,1,16.7,0,25c3.5,2.1,7.7,4.4,13.3,7.4l0,0c5,2.6,7.5,8.3,6,13.7
						c-1.1,4.1-2.4,8.1-3.9,12c-2,5.2-7.4,8.4-13,7.5c-6.2-0.9-11-1.6-15.1-1.9c-4,7.1-8.8,13.8-14.4,19.8c1.6,3.7,3.7,8.1,6.5,13.8
						c2.5,5,1.2,11.1-3.2,14.6c-3.3,2.7-6.8,5.2-10.3,7.5c-4.7,3.1-10.9,2.5-14.9-1.5c-4.3-4.2-7.9-7.6-11.1-10.4
						c-7.4,3.4-15.2,6-23.2,7.6c-0.9,4-1.8,8.9-2.8,15.2c-0.9,5.5-5.5,9.7-11.1,10C-209.5,244.3-211.5,244.3-213.4,244.3z
						 M-258.6,207.9c0.2,0,0.5,0.1,0.7,0.2c7.8,3.7,16,6.4,24.4,8c0.6,0.1,1.1,0.6,1.3,1.2c1.2,5.3,2.3,11.5,3.1,16.3
						c0.7,4,4,7.1,8.1,7.3c4.4,0.3,8.7,0.4,13.1,0.1c4.1-0.2,7.4-3.3,8.1-7.3c1.1-6.9,2.1-12.1,3.1-16.4c0.1-0.6,0.6-1.1,1.3-1.2
						c8.5-1.6,16.7-4.3,24.4-8c0.6-0.3,1.3-0.2,1.7,0.2c3.4,2.9,7.3,6.6,12,11.2c2.9,2.9,7.5,3.3,10.9,1.1c3.5-2.3,6.8-4.7,10.1-7.3
						c3.2-2.6,4.1-7,2.3-10.7c-3.1-6.2-5.3-10.9-7-14.9c-0.2-0.6-0.1-1.3,0.3-1.7c5.9-6.3,11-13.3,15.1-20.8
						c0.3-0.6,0.9-0.9,1.6-0.8c4.3,0.4,9.5,1,16.3,2.1c4.1,0.6,8-1.7,9.5-5.5c1.5-3.8,2.7-7.7,3.8-11.7c1.1-4-0.8-8.1-4.4-10l0,0
						c-6.2-3.3-10.7-5.7-14.4-8c-0.5-0.3-0.8-0.9-0.7-1.6c1.1-8.7,1.1-17.5,0-26.2c-0.1-0.6,0.2-1.2,0.8-1.6c3.7-2.3,8.3-4.8,14.4-8
						c3.6-1.9,5.4-6.1,4.4-10.1c-1.1-4-2.4-7.9-3.8-11.7c-1.5-3.8-5.4-6.1-9.5-5.5c-6.8,1-12,1.7-16.3,2.1c-0.6,0.1-1.2-0.3-1.6-0.8
						c-4.1-7.6-9.2-14.6-15.1-20.8c-0.4-0.5-0.6-1.1-0.3-1.7c1.7-4,3.9-8.7,7-14.9c1.8-3.7,0.9-8.1-2.3-10.7
						c-3.2-2.6-6.6-5.1-10.1-7.3c-3.4-2.2-8-1.8-10.9,1.1c-4.7,4.6-8.6,8.3-12,11.2c-0.5,0.4-1.2,0.5-1.7,0.2
						c-7.8-3.7-16-6.4-24.4-8c-0.6-0.1-1.1-0.6-1.3-1.2c-1.2-5.4-2.3-11.5-3.1-16.3c-0.7-4-4-7-8-7.3c-4.4-0.2-8.8-0.2-13.2,0.1
						c-4.1,0.3-7.4,3.3-8.1,7.3c-1.1,6.8-2.1,12-3,16.2c-0.1,0.6-0.6,1.1-1.3,1.2c-8.5,1.6-16.7,4.3-24.4,8
						c-0.6,0.3-1.3,0.2-1.7-0.2c-3.4-2.9-7.3-6.6-12-11.2c-2.9-2.9-7.5-3.3-10.9-1.1c-3.5,2.3-6.9,4.7-10.1,7.3
						c-3.2,2.6-4.1,7-2.3,10.7c3.1,6.2,5.3,10.9,7,14.9c0.2,0.6,0.1,1.3-0.3,1.7c-5.9,6.3-11,13.3-15.2,20.8
						c-0.3,0.6-0.9,0.9-1.6,0.8c-4.4-0.4-9.5-1-16.3-2.1c-4.1-0.6-8,1.7-9.5,5.5c-1.5,3.8-2.7,7.8-3.8,11.7c-1,4,0.8,8.1,4.4,10.1
						c6.1,3.2,10.7,5.7,14.4,8c0.5,0.3,0.8,0.9,0.8,1.6c-1.1,8.7-1.1,17.5,0,26.2c0.1,0.6-0.2,1.2-0.8,1.6c-3.7,2.3-8.2,4.7-14.4,8
						c-3.6,1.9-5.5,6.1-4.4,10.1c1.1,4,2.3,7.9,3.8,11.7c1.5,3.8,5.4,6.1,9.5,5.5c6.8-1,12-1.7,16.3-2.1c0.6-0.1,1.2,0.3,1.6,0.8
						c4.1,7.6,9.2,14.6,15.2,20.8c0.4,0.5,0.6,1.1,0.3,1.7c-1.7,4-3.9,8.7-7,14.9c-1.8,3.7-0.9,8.1,2.3,10.7
						c3.2,2.6,6.6,5.1,10.1,7.3c3.4,2.2,8,1.8,10.9-1.1c4.7-4.6,8.7-8.3,12-11.2C-259.3,208-258.9,207.9-258.6,207.9z"/>
					<path class="st3" d="M-214.4,180.4c-35.3,0-63.9-28.6-63.9-63.9s28.6-63.9,63.9-63.9c35.3,0,63.9,28.6,63.9,63.9c0,0,0,0,0,0
						C-150.5,151.7-179.1,180.3-214.4,180.4z M-214.4,55.7c-33.5,0-60.7,27.2-60.7,60.7c0,33.5,27.2,60.7,60.7,60.7
						s60.7-27.2,60.7-60.7c0,0,0,0,0,0C-153.7,82.9-180.9,55.7-214.4,55.7z"/>
				</g>
			</g>
		</g>
	</g>
	
		<g transform="translate(565.0 445.0) scale(0.6067116230033219 0.6145492235583317) rotate(0.0 50.27100000000001 54.511500000000005)">
		<g transform="translate(-0.0 -0.0)">
			<g id="a63b342c-d8bb-4bef-aece-cd78bf84c78d-i4">
				<g id="a7969edd-2f27-409b-85fd-179160ff712c-i4">
					<path class="st2" d="M-251.6,58.6L-251.6,58.6c0-4.1,4.3-9.4,9.2-14.8c2.4-2.6,2.9-6.5,1.4-9.7c-1.3-2.8-2.9-5.5-4.7-8.1
						c-2-2.9-5.6-4.2-9-3.5c-7.1,1.6-13.8,2.7-17.3,0.7h0c-3.6-2-6-8.4-8.2-15.3c-1.1-3.3-4-5.7-7.5-6c-3.2-0.3-6.3-0.2-9.5,0
						c-3.5,0.3-6.4,2.7-7.5,6c-2.2,6.9-4.6,13.3-8,15.3l0,0c-3.6,2.1-10.3,1-17.4-0.6c-3.4-0.7-7,0.6-9,3.5
						c-1.8,2.6-3.4,5.4-4.7,8.2c-1.5,3.2-0.9,6.9,1.5,9.5c4.9,5.4,9.3,10.6,9.3,14.6l0,0c0,4.1-4.3,9.4-9.2,14.8
						c-2.4,2.6-2.9,6.5-1.4,9.7c1.3,2.8,2.9,5.5,4.7,8.1c2,2.9,5.6,4.2,9,3.5c7.1-1.6,13.8-2.7,17.3-0.7h0c3.6,2.1,6,8.4,8.2,15.3
						c1.1,3.3,4,5.7,7.5,6c3.2,0.3,6.3,0.2,9.5,0c3.5-0.3,6.4-2.7,7.5-6c2.2-6.9,4.6-13.3,8-15.3l0,0c3.6-2.1,10.3-1,17.4,0.6
						c3.4,0.7,7-0.6,9-3.5c1.8-2.6,3.4-5.4,4.7-8.2c1.5-3.2,0.9-6.9-1.5-9.5C-247.2,67.7-251.6,62.5-251.6,58.6z M-292.3,78.6
						c-11,0-20-9-20-20s9-20,20-20c11,0,20,9,20,20C-272.3,69.6-281.2,78.6-292.3,78.6z"/>
					<path class="st1" d="M-297.5,77.9l-11.2,20.5c-0.9-1.8-2.2-3.4-3.9-4.5h0c-3-1.7-8.4-1.1-14.4,0.1l15.8-28.9
						C-309,71.3-303.9,76.1-297.5,77.9z"/>
					<path class="st1" d="M-268.2,24.3l-10.6,19.4c-4.9-4.5-11.7-6.2-18.2-4.6l17-31c2.2,6.9,4.6,13.1,8.2,15.2h0
						C-270.8,23.9-269.5,24.3-268.2,24.3z"/>
					<path class="st1" d="M-244.5,27.9l-47.9,87.5c-1.5,0-3-0.1-4.5-0.2c-3.2-0.3-5.9-2.3-7.2-5.2l17.7-32.3
						c10.4-3.2,16.3-14,13.4-24.5l16.5-30.2c0.6-0.1,1.2-0.3,1.8-0.4c3.4-0.8,6.9,0.6,9,3.4C-245.3,26.6-244.9,27.2-244.5,27.9z"/>
					<path class="st3" d="M-292.3,117c-1.6,0-3.1-0.1-4.7-0.2c-4.1-0.3-7.7-3.2-8.9-7.1c-2.1-6.5-4.4-12.7-7.5-14.4
						c-0.1,0-0.1-0.1-0.2-0.1c-3.4-1.7-11.5,0-15.9,1c-4,0.9-8.2-0.7-10.6-4.1c-1.8-2.6-3.5-5.4-4.9-8.3c-1.8-3.8-1.2-8.3,1.6-11.4
						c4.6-5,8.8-10.2,8.8-13.7c0-0.1,0-0.1,0-0.1c-0.2-3.8-5.8-10-8.8-13.3c-2.8-3.1-3.5-7.5-1.8-11.3c1.4-3,3-5.8,4.9-8.5
						c2.4-3.4,6.6-5.1,10.6-4.2c6.6,1.4,13.2,2.5,16.3,0.7c0.1,0,0.1-0.1,0.2-0.1c2.9-1.9,5.2-8.4,7.1-14.3c1.2-4,4.7-6.8,8.9-7.1
						c3.3-0.3,6.5-0.3,9.8,0c4.1,0.3,7.7,3.2,8.9,7.1c2.1,6.5,4.4,12.7,7.5,14.4c0.1,0,0.1,0.1,0.2,0.1c3.4,1.7,11.5,0,15.9-1
						c4-0.9,8.2,0.7,10.6,4.1c1.8,2.6,3.5,5.4,4.9,8.3c1.8,3.8,1.2,8.3-1.6,11.4c-4.6,5-8.8,10.2-8.8,13.7c0,0.1,0,0.1,0,0.2
						c0.2,3.8,5.8,10,8.8,13.3c2.8,3.1,3.5,7.5,1.8,11.3c-1.4,3-3,5.8-4.9,8.5c-2.4,3.4-6.6,5.1-10.6,4.2
						c-6.6-1.4-13.2-2.5-16.3-0.7c-0.1,0-0.1,0.1-0.2,0.1c-2.9,1.9-5.2,8.4-7.1,14.3c-1.2,4-4.7,6.8-8.9,7.2
						C-288.9,116.9-290.6,117-292.3,117z M-311.6,92.6c3.7,2.3,6,7.9,8.7,16.1c0.9,2.7,3.3,4.7,6.1,4.9c3.1,0.2,6.2,0.2,9.2,0
						c2.8-0.3,5.2-2.2,6.1-4.9c2.2-6.9,4.7-13.9,8.7-16.2c0.1-0.1,0.2-0.1,0.3-0.1c3.8-2,9.8-1.3,18.2,0.5c2.8,0.6,5.7-0.5,7.3-2.9
						c1.8-2.5,3.3-5.2,4.6-8c1.2-2.6,0.7-5.6-1.2-7.7c-4.9-5.4-9.7-11-9.7-15.7c0-0.1,0-0.1,0-0.2c0.1-4.3,3.8-9.2,9.6-15.6
						c1.9-2.2,2.4-5.3,1.1-7.9c-1.3-2.7-2.8-5.4-4.6-7.9c-1.6-2.3-4.5-3.4-7.3-2.8c-7.1,1.6-14.4,2.9-18.4,0.5
						c-0.1,0-0.1-0.1-0.2-0.1c-3.7-2.3-6-7.9-8.7-16.1c-0.9-2.7-3.3-4.7-6.1-4.9c-3.1-0.3-6.2-0.2-9.2,0c-2.8,0.3-5.2,2.2-6.1,4.9
						c-2.2,6.9-4.7,13.9-8.7,16.2c-0.1,0.1-0.2,0.1-0.3,0.1c-3.8,2-9.8,1.3-18.2-0.5c-2.8-0.6-5.7,0.5-7.3,2.9
						c-1.8,2.5-3.3,5.2-4.6,8c-1.2,2.6-0.7,5.6,1.2,7.7c4.9,5.4,9.7,11,9.7,15.7c0,0.1,0,0.1,0,0.2c-0.1,4.3-3.8,9.2-9.6,15.6
						c-1.9,2.2-2.4,5.3-1.1,7.9c1.3,2.7,2.8,5.4,4.6,7.9c1.6,2.3,4.5,3.4,7.3,2.8c7.1-1.6,14.4-2.9,18.4-0.5
						C-311.7,92.5-311.6,92.5-311.6,92.6z"/>
					<path class="st3" d="M-292.3,80.2c-11.9,0-21.6-9.7-21.6-21.6c0-11.9,9.7-21.6,21.6-21.6c11.9,0,21.6,9.7,21.6,21.6
						c0,0,0,0,0,0C-270.7,70.5-280.3,80.2-292.3,80.2z M-292.3,40.2c-10.2,0-18.4,8.2-18.4,18.4c0,10.2,8.2,18.4,18.4,18.4
						s18.4-8.2,18.4-18.4c0,0,0,0,0,0C-273.9,48.4-282.1,40.2-292.3,40.2z"/>
				</g>
			</g>
		</g>
	</g>
</g>
</svg>
